<mxfile host="65bd71144e">
    <diagram id="puRboPM44XWlyKMjKKkZ" name="ページ1">
        <mxGraphModel dx="707" dy="472" grid="1" gridSize="10" guides="1" tooltips="1" connect="1" arrows="1" fold="1" page="1" pageScale="1" pageWidth="1169" pageHeight="1654" math="0" shadow="0">
            <root>
                <mxCell id="0"/>
                <mxCell id="1" parent="0"/>
                <mxCell id="32" value="&lt;font color=&quot;#1a1a1a&quot;&gt;Welcomeページ&lt;/font&gt;" style="whiteSpace=wrap;html=1;labelBackgroundColor=none;fontSize=12;fillColor=#f9f7ed;strokeColor=#36393d;verticalAlign=top;" parent="1" vertex="1">
                    <mxGeometry x="28" y="160" width="120" height="240" as="geometry"/>
                </mxCell>
                <mxCell id="4" value="&lt;font color=&quot;#1a1a1a&quot; style=&quot;font-size: 12px;&quot;&gt;新規ユーザ&lt;br&gt;登録&lt;/font&gt;" style="whiteSpace=wrap;html=1;fillColor=#ffcccc;strokeColor=#36393d;fontSize=11;" parent="1" vertex="1">
                    <mxGeometry x="53" y="334" width="70" height="30" as="geometry"/>
                </mxCell>
                <mxCell id="5" value="&lt;font color=&quot;#1a1a1a&quot;&gt;ログイン画面&lt;/font&gt;" style="whiteSpace=wrap;html=1;fillColor=#ffcccc;strokeColor=#36393d;" parent="1" vertex="1">
                    <mxGeometry x="248" y="180" width="120" height="60" as="geometry"/>
                </mxCell>
                <mxCell id="6" value="&lt;font color=&quot;#1a1a1a&quot;&gt;ホーム画面&lt;br&gt;&lt;/font&gt;" style="whiteSpace=wrap;html=1;fillColor=#cdeb8b;strokeColor=#36393d;verticalAlign=top;" parent="1" vertex="1">
                    <mxGeometry x="468" y="160" width="120" height="370" as="geometry"/>
                </mxCell>
                <mxCell id="9" value="&lt;span style=&quot;font-family: &amp;quot;Noto Sans JP&amp;quot;, &amp;quot;ヒラギノ角ゴ Pro W3&amp;quot;, &amp;quot;Hiragino Kaku Gothic Pro&amp;quot;, メイリオ, Meiryo, YuGothic, 游ゴシック, &amp;quot;ＭＳ Ｐゴシック&amp;quot;, &amp;quot;MS PGothic&amp;quot;, arial, sans-serif; text-align: left;&quot;&gt;&lt;font style=&quot;font-size: 12px;&quot; color=&quot;#1a1a1a&quot;&gt;検索&lt;/font&gt;&lt;/span&gt;" style="whiteSpace=wrap;html=1;fillColor=#dae8fc;strokeColor=#6c8ebf;" parent="1" vertex="1">
                    <mxGeometry x="493" y="265" width="70" height="30" as="geometry"/>
                </mxCell>
                <mxCell id="24" value="&lt;span style=&quot;font-family: &amp;quot;Noto Sans JP&amp;quot;, &amp;quot;ヒラギノ角ゴ Pro W3&amp;quot;, &amp;quot;Hiragino Kaku Gothic Pro&amp;quot;, メイリオ, Meiryo, YuGothic, 游ゴシック, &amp;quot;ＭＳ Ｐゴシック&amp;quot;, &amp;quot;MS PGothic&amp;quot;, arial, sans-serif; text-align: left;&quot;&gt;&lt;font style=&quot;font-size: 12px;&quot; color=&quot;#1a1a1a&quot;&gt;登録画面&lt;/font&gt;&lt;/span&gt;" style="whiteSpace=wrap;html=1;fillColor=#dae8fc;strokeColor=#6c8ebf;verticalAlign=top;" parent="1" vertex="1">
                    <mxGeometry x="900" y="180" width="120" height="60" as="geometry"/>
                </mxCell>
                <mxCell id="25" value="&lt;span style=&quot;font-family: &amp;quot;Noto Sans JP&amp;quot;, &amp;quot;ヒラギノ角ゴ Pro W3&amp;quot;, &amp;quot;Hiragino Kaku Gothic Pro&amp;quot;, メイリオ, Meiryo, YuGothic, 游ゴシック, &amp;quot;ＭＳ Ｐゴシック&amp;quot;, &amp;quot;MS PGothic&amp;quot;, arial, sans-serif; text-align: left;&quot;&gt;&lt;font style=&quot;font-size: 12px;&quot; color=&quot;#1a1a1a&quot;&gt;編集画面&lt;/font&gt;&lt;/span&gt;" style="whiteSpace=wrap;html=1;fillColor=#dae8fc;strokeColor=#6c8ebf;verticalAlign=top;" parent="1" vertex="1">
                    <mxGeometry x="900" y="250" width="120" height="60" as="geometry"/>
                </mxCell>
                <mxCell id="26" value="&lt;span style=&quot;font-family: &amp;quot;Noto Sans JP&amp;quot;, &amp;quot;ヒラギノ角ゴ Pro W3&amp;quot;, &amp;quot;Hiragino Kaku Gothic Pro&amp;quot;, メイリオ, Meiryo, YuGothic, 游ゴシック, &amp;quot;ＭＳ Ｐゴシック&amp;quot;, &amp;quot;MS PGothic&amp;quot;, arial, sans-serif; text-align: left;&quot;&gt;&lt;font style=&quot;font-size: 12px;&quot; color=&quot;#1a1a1a&quot;&gt;削除画面&lt;/font&gt;&lt;/span&gt;" style="whiteSpace=wrap;html=1;fillColor=#dae8fc;strokeColor=#6c8ebf;verticalAlign=top;" parent="1" vertex="1">
                    <mxGeometry x="900" y="319" width="120" height="60" as="geometry"/>
                </mxCell>
                <mxCell id="30" value="&lt;font color=&quot;#1a1a1a&quot;&gt;ログイン&lt;/font&gt;" style="whiteSpace=wrap;html=1;fillColor=#ffcccc;strokeColor=#36393d;" parent="1" vertex="1">
                    <mxGeometry x="53" y="195" width="70" height="30" as="geometry"/>
                </mxCell>
                <mxCell id="34" value="&lt;span style=&quot;color: rgb(26, 26, 26);&quot;&gt;&lt;font style=&quot;font-size: 12px;&quot;&gt;新規ユーザ登録画面&lt;/font&gt;&lt;/span&gt;" style="whiteSpace=wrap;html=1;fillColor=#ffcccc;strokeColor=#36393d;" parent="1" vertex="1">
                    <mxGeometry x="248" y="319" width="120" height="60" as="geometry"/>
                </mxCell>
                <mxCell id="36" value="" style="edgeStyle=none;orthogonalLoop=1;jettySize=auto;html=1;fontSize=12;fontColor=#1A1A1A;shape=flexArrow;" parent="1" edge="1">
                    <mxGeometry width="100" relative="1" as="geometry">
                        <mxPoint x="158" y="209.57" as="sourcePoint"/>
                        <mxPoint x="238" y="209.57" as="targetPoint"/>
                        <Array as="points"/>
                    </mxGeometry>
                </mxCell>
                <mxCell id="49" value="&lt;span style=&quot;font-family: &amp;quot;Noto Sans JP&amp;quot;, &amp;quot;ヒラギノ角ゴ Pro W3&amp;quot;, &amp;quot;Hiragino Kaku Gothic Pro&amp;quot;, メイリオ, Meiryo, YuGothic, 游ゴシック, &amp;quot;ＭＳ Ｐゴシック&amp;quot;, &amp;quot;MS PGothic&amp;quot;, arial, sans-serif; text-align: left;&quot;&gt;&lt;font style=&quot;font-size: 12px;&quot; color=&quot;#1a1a1a&quot;&gt;戻る&lt;/font&gt;&lt;/span&gt;" style="whiteSpace=wrap;html=1;fillColor=#cdeb8b;strokeColor=#36393d;" parent="1" vertex="1">
                    <mxGeometry x="925" y="204" width="70" height="30" as="geometry"/>
                </mxCell>
                <mxCell id="50" value="&lt;span style=&quot;font-family: &amp;quot;Noto Sans JP&amp;quot;, &amp;quot;ヒラギノ角ゴ Pro W3&amp;quot;, &amp;quot;Hiragino Kaku Gothic Pro&amp;quot;, メイリオ, Meiryo, YuGothic, 游ゴシック, &amp;quot;ＭＳ Ｐゴシック&amp;quot;, &amp;quot;MS PGothic&amp;quot;, arial, sans-serif; text-align: left;&quot;&gt;&lt;font style=&quot;font-size: 12px;&quot; color=&quot;#1a1a1a&quot;&gt;戻る&lt;/font&gt;&lt;/span&gt;" style="whiteSpace=wrap;html=1;fillColor=#cdeb8b;strokeColor=#36393d;" parent="1" vertex="1">
                    <mxGeometry x="925" y="274" width="70" height="30" as="geometry"/>
                </mxCell>
                <mxCell id="51" value="&lt;span style=&quot;font-family: &amp;quot;Noto Sans JP&amp;quot;, &amp;quot;ヒラギノ角ゴ Pro W3&amp;quot;, &amp;quot;Hiragino Kaku Gothic Pro&amp;quot;, メイリオ, Meiryo, YuGothic, 游ゴシック, &amp;quot;ＭＳ Ｐゴシック&amp;quot;, &amp;quot;MS PGothic&amp;quot;, arial, sans-serif; text-align: left;&quot;&gt;&lt;font style=&quot;font-size: 12px;&quot; color=&quot;#1a1a1a&quot;&gt;戻る&lt;/font&gt;&lt;/span&gt;" style="whiteSpace=wrap;html=1;fillColor=#cdeb8b;strokeColor=#36393d;" parent="1" vertex="1">
                    <mxGeometry x="925" y="343" width="70" height="30" as="geometry"/>
                </mxCell>
                <mxCell id="54" value="&lt;span style=&quot;font-family: &amp;quot;Noto Sans JP&amp;quot;, &amp;quot;ヒラギノ角ゴ Pro W3&amp;quot;, &amp;quot;Hiragino Kaku Gothic Pro&amp;quot;, メイリオ, Meiryo, YuGothic, 游ゴシック, &amp;quot;ＭＳ Ｐゴシック&amp;quot;, &amp;quot;MS PGothic&amp;quot;, arial, sans-serif; text-align: left;&quot;&gt;&lt;font style=&quot;font-size: 12px;&quot; color=&quot;#1a1a1a&quot;&gt;ログアウト&lt;/font&gt;&lt;/span&gt;" style="whiteSpace=wrap;html=1;fillColor=#dae8fc;strokeColor=#6c8ebf;" parent="1" vertex="1">
                    <mxGeometry x="493" y="466" width="70" height="30" as="geometry"/>
                </mxCell>
                <mxCell id="55" value="" style="edgeStyle=none;orthogonalLoop=1;jettySize=auto;html=1;fontSize=12;fontColor=#1A1A1A;shape=flexArrow;" parent="1" edge="1">
                    <mxGeometry width="100" relative="1" as="geometry">
                        <mxPoint x="158" y="348.57" as="sourcePoint"/>
                        <mxPoint x="238" y="348.57" as="targetPoint"/>
                        <Array as="points"/>
                    </mxGeometry>
                </mxCell>
                <mxCell id="61" value="" style="edgeStyle=none;orthogonalLoop=1;jettySize=auto;html=1;endArrow=classic;startArrow=classic;endSize=8;startSize=8;fontSize=12;fontColor=#1A1A1A;shape=flexArrow;" parent="1" edge="1">
                    <mxGeometry width="100" relative="1" as="geometry">
                        <mxPoint x="820" y="209.47" as="sourcePoint"/>
                        <mxPoint x="890" y="209" as="targetPoint"/>
                        <Array as="points"/>
                    </mxGeometry>
                </mxCell>
                <mxCell id="62" value="" style="edgeStyle=none;orthogonalLoop=1;jettySize=auto;html=1;fontSize=12;fontColor=#1A1A1A;shape=flexArrow;" parent="1" edge="1">
                    <mxGeometry width="100" relative="1" as="geometry">
                        <mxPoint x="307.74" y="310.00000000000017" as="sourcePoint"/>
                        <mxPoint x="307.74" y="250" as="targetPoint"/>
                        <Array as="points"/>
                    </mxGeometry>
                </mxCell>
                <mxCell id="63" value="" style="edgeStyle=none;orthogonalLoop=1;jettySize=auto;html=1;fontSize=12;fontColor=#1A1A1A;shape=flexArrow;" parent="1" edge="1">
                    <mxGeometry width="100" relative="1" as="geometry">
                        <mxPoint x="458" y="480" as="sourcePoint"/>
                        <mxPoint x="88" y="410" as="targetPoint"/>
                        <Array as="points">
                            <mxPoint x="88" y="480"/>
                        </Array>
                    </mxGeometry>
                </mxCell>
                <mxCell id="64" value="" style="edgeStyle=none;orthogonalLoop=1;jettySize=auto;html=1;fontSize=12;fontColor=#1A1A1A;shape=flexArrow;" parent="1" edge="1">
                    <mxGeometry width="100" relative="1" as="geometry">
                        <mxPoint x="377.9999999999999" y="209.56999999999994" as="sourcePoint"/>
                        <mxPoint x="457.9999999999999" y="209.56999999999994" as="targetPoint"/>
                        <Array as="points"/>
                    </mxGeometry>
                </mxCell>
                <mxCell id="65" value="" style="edgeStyle=none;orthogonalLoop=1;jettySize=auto;html=1;endArrow=classic;startArrow=classic;endSize=8;startSize=8;fontSize=12;fontColor=#1A1A1A;shape=flexArrow;" parent="1" edge="1">
                    <mxGeometry width="100" relative="1" as="geometry">
                        <mxPoint x="820.0000000000002" y="279.94000000000005" as="sourcePoint"/>
                        <mxPoint x="889.9999999999998" y="279.47" as="targetPoint"/>
                        <Array as="points"/>
                    </mxGeometry>
                </mxCell>
                <mxCell id="66" value="" style="edgeStyle=none;orthogonalLoop=1;jettySize=auto;html=1;endArrow=classic;startArrow=classic;endSize=8;startSize=8;fontSize=12;fontColor=#1A1A1A;shape=flexArrow;" parent="1" edge="1">
                    <mxGeometry width="100" relative="1" as="geometry">
                        <mxPoint x="820.0000000000002" y="349.93999999999994" as="sourcePoint"/>
                        <mxPoint x="889.9999999999998" y="349.47" as="targetPoint"/>
                        <Array as="points"/>
                    </mxGeometry>
                </mxCell>
                <mxCell id="68" value="" style="edgeStyle=none;orthogonalLoop=1;jettySize=auto;html=1;fontSize=12;fontColor=#1A1A1A;shape=flexArrow;" edge="1" parent="1">
                    <mxGeometry width="100" relative="1" as="geometry">
                        <mxPoint x="600" y="279.49999999999994" as="sourcePoint"/>
                        <mxPoint x="680" y="279.49999999999994" as="targetPoint"/>
                        <Array as="points"/>
                    </mxGeometry>
                </mxCell>
                <mxCell id="69" value="&lt;font color=&quot;#1a1a1a&quot;&gt;ホーム画面&lt;br&gt;&lt;/font&gt;" style="whiteSpace=wrap;html=1;fillColor=#cdeb8b;strokeColor=#36393d;verticalAlign=top;" vertex="1" parent="1">
                    <mxGeometry x="690" y="160" width="120" height="370" as="geometry"/>
                </mxCell>
                <mxCell id="70" value="&lt;span style=&quot;font-family: &amp;quot;Noto Sans JP&amp;quot;, &amp;quot;ヒラギノ角ゴ Pro W3&amp;quot;, &amp;quot;Hiragino Kaku Gothic Pro&amp;quot;, メイリオ, Meiryo, YuGothic, 游ゴシック, &amp;quot;ＭＳ Ｐゴシック&amp;quot;, &amp;quot;MS PGothic&amp;quot;, arial, sans-serif; text-align: left;&quot;&gt;&lt;font style=&quot;font-size: 12px;&quot; color=&quot;#1a1a1a&quot;&gt;登録&lt;/font&gt;&lt;/span&gt;" style="whiteSpace=wrap;html=1;fillColor=#dae8fc;strokeColor=#6c8ebf;" vertex="1" parent="1">
                    <mxGeometry x="715" y="195" width="70" height="30" as="geometry"/>
                </mxCell>
                <mxCell id="71" value="&lt;span style=&quot;font-family: &amp;quot;Noto Sans JP&amp;quot;, &amp;quot;ヒラギノ角ゴ Pro W3&amp;quot;, &amp;quot;Hiragino Kaku Gothic Pro&amp;quot;, メイリオ, Meiryo, YuGothic, 游ゴシック, &amp;quot;ＭＳ Ｐゴシック&amp;quot;, &amp;quot;MS PGothic&amp;quot;, arial, sans-serif; text-align: left;&quot;&gt;&lt;font style=&quot;font-size: 12px;&quot; color=&quot;#1a1a1a&quot;&gt;編集&lt;/font&gt;&lt;/span&gt;" style="whiteSpace=wrap;html=1;fillColor=#dae8fc;strokeColor=#6c8ebf;" vertex="1" parent="1">
                    <mxGeometry x="715" y="265" width="70" height="30" as="geometry"/>
                </mxCell>
                <mxCell id="72" value="&lt;span style=&quot;font-family: &amp;quot;Noto Sans JP&amp;quot;, &amp;quot;ヒラギノ角ゴ Pro W3&amp;quot;, &amp;quot;Hiragino Kaku Gothic Pro&amp;quot;, メイリオ, Meiryo, YuGothic, 游ゴシック, &amp;quot;ＭＳ Ｐゴシック&amp;quot;, &amp;quot;MS PGothic&amp;quot;, arial, sans-serif; text-align: left;&quot;&gt;&lt;font style=&quot;font-size: 12px;&quot; color=&quot;#1a1a1a&quot;&gt;削除&lt;/font&gt;&lt;/span&gt;" style="whiteSpace=wrap;html=1;fillColor=#dae8fc;strokeColor=#6c8ebf;" vertex="1" parent="1">
                    <mxGeometry x="715" y="334" width="70" height="30" as="geometry"/>
                </mxCell>
            </root>
        </mxGraphModel>
    </diagram>
</mxfile>